<svg width="84" height="24" viewBox="0 0 84 24" fill="none" xmlns="http://www.w3.org/2000/svg">
<path d="M28.8182 6.36364H27.4091V18H28.8182V6.36364ZM32.6026 12.75C32.6026 11.2273 33.5457 10.3636 34.8298 10.3636C36.0741 10.3636 36.8298 11.1761 36.8298 12.5455V18H38.1707V12.4545C38.1707 10.2273 36.9832 9.15909 35.2162 9.15909C33.898 9.15909 33.0798 9.75 32.6707 10.6364H32.5571V9.27273H31.2616V18H32.6026V12.75ZM50.9028 11.2273C50.4824 9.98864 49.5392 9.15909 47.8119 9.15909C45.971 9.15909 44.6074 10.2045 44.6074 11.6818C44.6074 12.8864 45.3233 13.6932 46.9256 14.0682L48.3801 14.4091C49.2608 14.6136 49.6756 15.0341 49.6756 15.6364C49.6756 16.3864 48.8801 17 47.6301 17C46.5335 17 45.846 16.5284 45.6074 15.5909L44.3347 15.9091C44.6472 17.392 45.8687 18.1818 47.6528 18.1818C49.6812 18.1818 51.0619 17.0739 51.0619 15.5682C51.0619 14.3523 50.3006 13.5852 48.7437 13.2045L47.4483 12.8864C46.4142 12.6307 45.9483 12.2841 45.9483 11.6136C45.9483 10.8636 46.7437 10.3182 47.8119 10.3182C48.9824 10.3182 49.4653 10.9659 49.6983 11.5682L50.9028 11.2273ZM56.6759 9.27273H54.8122V7.18182H53.4713V9.27273H52.1531V10.4091H53.4713V15.8636C53.4713 17.3864 54.6986 18.1136 55.8349 18.1136C56.3349 18.1136 56.6531 18.0227 56.8349 17.9545L56.5622 16.75C56.4486 16.7727 56.2668 16.8182 55.9713 16.8182C55.3804 16.8182 54.8122 16.6364 54.8122 15.5V10.4091H56.6759V9.27273ZM61.9446 18.1818C64.3082 18.1818 65.8991 16.3864 65.8991 13.6818C65.8991 10.9545 64.3082 9.15909 61.9446 9.15909C59.581 9.15909 57.9901 10.9545 57.9901 13.6818C57.9901 16.3864 59.581 18.1818 61.9446 18.1818ZM61.9446 16.9773C60.1491 16.9773 59.331 15.4318 59.331 13.6818C59.331 11.9318 60.1491 10.3636 61.9446 10.3636C63.7401 10.3636 64.5582 11.9318 64.5582 13.6818C64.5582 15.4318 63.7401 16.9773 61.9446 16.9773ZM71.2915 18.1818C73.2233 18.1818 74.496 17 74.7233 15.4545H73.3824C73.1324 16.4091 72.3369 16.9773 71.2915 16.9773C69.7006 16.9773 68.6778 15.6591 68.6778 13.6364C68.6778 11.6591 69.7233 10.3636 71.2915 10.3636C72.4733 10.3636 73.1778 11.0909 73.3824 11.8864H74.7233C74.496 10.25 73.1097 9.15909 71.2687 9.15909C68.9051 9.15909 67.3369 11.0227 67.3369 13.6818C67.3369 16.2955 68.8369 18.1818 71.2915 18.1818ZM76.4835 18H77.8244V14.733L78.7619 13.8636L82.029 18H83.7335L79.7733 13L83.4608 9.27273H81.8017L77.9835 13.1591H77.8244V6.36364H76.4835V18Z" fill="#00B517"/>
<path d="M8.79502 15.875L4.62502 11.705L3.20502 13.115L8.79502 18.705L20.795 6.70504L19.385 5.29504L8.79502 15.875Z" fill="#00B517"/>
</svg>
